<svg width="195" height="123" viewBox="0 0 195 123" fill="none" xmlns="http://www.w3.org/2000/svg">
<path d="M150.835 48.6841C148.586 42.9974 147.341 35.6371 147.641 27.6756C148.194 12.9658 154.133 1.09947 161.44 0.0866816C170.146 -1.12108 195 10.4039 195 27.6754C195 34.8678 193.742 41.4645 191.649 46.6313C190.804 48.7165 190.628 51.6032 191.236 54.0025C191.357 54.4845 191.479 54.9719 191.581 55.5135C192.983 62.8847 188.902 68.7014 188.2 62.7384C187.938 60.5179 188.449 58.606 187.887 57.9345C187.063 57.772 187.371 61.2382 187.558 67.8403C187.825 70.467 188.025 72.1514 187.72 73.63C187.339 75.4822 185.813 76.4679 185.692 72.3843C185.638 70.5699 185.716 68.7068 185.594 68.1815C185.489 67.7211 185.216 67.3691 184.984 67.564C184.304 68.1273 184.449 73.6895 184.449 75.2168C184.638 87.0345 185.702 92.158 184.971 98.7059C184.717 100.975 184.214 103.234 183.142 104.425C182.67 104.95 182.108 105.145 181.584 104.885C179.907 104.062 179.645 99.8811 179.662 96.5611C179.807 67.4016 180.002 68.176 179.194 66.1667C178.8 65.1864 178.085 64.8886 177.574 65.6143C177.102 66.2859 177.139 67.2662 177.185 68.1761C177.833 81.521 178.157 83.8282 177.272 85.3284C176.899 85.9621 176.383 86.1787 175.908 85.9567C174.555 85.323 173.699 82.8046 173.388 80.1887C173.046 77.3236 173.197 75.5526 173.707 60.3987C173.858 55.9522 171.965 56.7321 172.135 60.1008C172.206 61.4927 172.438 63.0959 171.847 64.0599C171.423 64.7532 170.799 64.5799 170.394 63.8433C169.678 62.5434 169.692 60.5774 169.762 58.7848C169.794 57.9615 149.589 47.4492 149.638 46.6314C149.849 43.0352 151.953 51.5113 150.835 48.6841Z" fill="url(#paint0_linear_5_31)"/>
<path d="M148.885 85.1159C149.776 90.4021 149.217 98.2149 149.304 101.986C149.378 105.132 149.105 107.616 148.777 110.455C148.364 114.018 148.557 116.6 151.026 116.324C153.112 116.091 153.549 114.067 152.983 110.823C152.361 107.266 152.085 103.434 151.942 99.7235C151.809 96.2648 152.399 90.6965 153.611 87.8387C154.897 84.8032 157.528 84.055 158.52 80.5166C160.546 73.268 157.58 67.853 162.527 62.947C167.11 58.3967 166.352 62.806 165.314 69.1224C164.787 72.342 165.126 78.7811 168.029 76.0583C170.799 73.4642 168.713 68.0124 168.249 64.7868C167.445 59.1817 169.66 56.7348 170.69 52.1171C171.235 49.6763 171.298 47.8182 171.298 42.0046C166.31 41.9985 56.1922 41.9985 39.8921 42.0046C39.8153 42.0046 39.9061 49.2164 39.9306 54.153C39.9515 58.3415 39.9725 64.5537 40.5035 70.8824C41.293 80.3019 40.1297 89.0714 40.2275 98.5828C40.2485 100.613 40.3533 108.579 42.7672 106.187C44.2309 104.74 43.6789 95.4185 43.6091 92.8551C43.4519 86.9066 42.0091 78.6094 43.7558 73.0227C45.0728 68.8097 48.5976 68.7606 49.719 64.2594C50.5713 60.8497 51.8534 52.761 54.5677 52.9327C58.0052 53.1473 57.2506 61.0766 57.2541 64.8603C57.2576 70.9683 57.4602 78.0022 60.1362 82.6139C61.4077 84.8093 63.13 84.9197 64.0138 87.4217C65.2993 91.0828 65.6277 102.551 65.6347 106.929C65.6382 110.995 64.8976 114.374 65.1317 118.489C65.3832 122.953 66.4522 124.799 68.4958 120.782C70.2599 117.311 68.4678 110.866 68.1394 106.831C67.6783 101.189 67.0879 93.3273 70.9062 90.905C72.852 89.6724 72.576 92.0824 73.8965 93.0759C79.416 97.2398 78.9165 80.8109 80.202 76.5059C81.8264 71.0542 84.1879 75.5554 86.008 76.7574C88.0446 78.1065 90.2105 72.2009 91.0873 78.4254C91.6498 82.4238 89.8786 86.4405 90.2175 90.4757C90.4201 92.898 90.7729 95.6454 92.2611 95.8968C93.351 96.0808 95.1641 93.9528 95.4121 92.0702C95.9571 87.9798 94.7588 83.1229 94.3292 79.1306C93.8156 74.3534 92.9633 68.8281 94.0637 64.2164C95.6427 57.5995 99.2548 52.994 103.269 53.3374C105.218 53.503 107.468 55.4409 109.071 57.2499C111.349 59.8256 111.09 63.6952 112.879 66.5406C116.495 72.3052 118.28 62.3706 121.549 63.18C122.905 63.5173 123.53 66.0868 125.085 65.9826C126.545 65.8845 127.286 63.2168 128.623 62.7998C134.279 61.0337 133.462 77.2725 133.161 82.3931C133.001 85.165 132.906 88.1024 134.517 89.2615C135.984 90.3101 137.821 88.4704 138.049 85.5881C138.373 81.5162 135.914 74.3902 137.559 70.7843C139.631 66.2402 142.216 73.9058 143.145 76.5059C144.239 79.5722 144.62 79.0693 146.419 80.0014C147.711 80.6576 148.462 82.6016 148.885 85.1159Z" fill="url(#paint1_linear_5_31)"/>
<path d="M47.4588 49.2107C51.706 44.2296 54.0565 37.7827 53.4906 30.8091C52.4453 17.9247 41.2332 7.53083 27.436 6.64372C10.9977 5.58583 0.00608244 3.95118 0.00608244 19.0795C0.00608244 25.3794 -0.311276 44.9365 3.64024 49.4621C5.23615 51.2885 5.56757 53.817 4.42035 55.9186C4.19091 56.3408 3.96147 56.7677 3.76771 57.2421C1.12147 63.6986 8.82566 68.7935 10.1513 63.5705C10.6459 61.6255 9.68225 59.9509 10.7428 59.3627C12.2979 59.2203 11.7166 62.2564 11.3648 68.0392C10.8601 70.34 10.4827 71.8154 11.0589 73.1105C11.7778 74.7329 14.6586 75.5963 14.8881 72.0194C14.99 70.4302 14.8422 68.7983 15.0716 68.3381C15.2705 67.9349 15.7854 67.6265 16.2239 67.7973C17.5088 68.2907 17.2335 73.1627 17.2335 74.5004C16.8766 84.8516 14.8677 89.3394 16.2494 95.0747C16.7287 97.0624 17.6771 99.0406 19.7013 100.084C20.5935 100.544 21.6541 100.715 22.6432 100.488C25.8095 99.7664 26.3041 96.1041 26.2735 93.1961C25.9982 67.655 25.6311 68.3334 27.1556 66.5734C27.9 65.7147 29.2512 65.4538 30.2149 66.0895C31.1071 66.6777 31.0358 67.5364 30.9491 68.3334C29.7254 80.0223 29.1135 82.0432 30.7859 83.3573C31.4895 83.9123 32.4634 84.1021 33.3608 83.9076C35.9152 83.3525 37.5315 81.1466 38.1179 78.8553C38.7654 76.3458 38.4799 74.7945 37.5162 61.5211C37.2307 57.6264 40.8049 58.3095 40.4837 61.2602C40.3511 62.4794 39.9127 63.8836 41.0293 64.728C41.8298 65.3352 43.0076 65.1834 43.7724 64.5382C45.1236 63.3997 45.0981 61.6777 44.9655 60.1074C44.9043 59.3864 44.8278 58.67 44.7361 57.9537C44.3384 54.8038 45.3479 51.687 47.4588 49.2107Z" fill="url(#paint2_linear_5_31)"/>
<defs>
<linearGradient id="paint0_linear_5_31" x1="181.141" y1="124.736" x2="177.452" y2="39.1897" gradientUnits="userSpaceOnUse">
<stop offset="0.2626" stop-color="#780000"/>
<stop offset="1" stop-color="#EC0000"/>
</linearGradient>
<linearGradient id="paint1_linear_5_31" x1="106.606" y1="121.823" x2="102.95" y2="49.4593" gradientUnits="userSpaceOnUse">
<stop stop-color="#780000"/>
<stop offset="1" stop-color="#CE0101"/>
</linearGradient>
<linearGradient id="paint2_linear_5_31" x1="23.4796" y1="117.875" x2="24.981" y2="42.8345" gradientUnits="userSpaceOnUse">
<stop offset="0.2626" stop-color="#780000"/>
<stop offset="1" stop-color="#EC0000"/>
</linearGradient>
</defs>
</svg>
